<svg width="175" height="59" viewBox="0 0 175 59" fill="none" xmlns="http://www.w3.org/2000/svg">
<path d="M29.8051 58.7785H145.108C161.283 58.7785 174.394 45.6664 174.394 29.4922C174.394 13.3185 161.282 0.207306 145.108 0.207306H29.8051C13.6311 0.207306 0.51947 13.3189 0.51947 29.4929C0.51947 45.6669 13.6311 58.7785 29.8051 58.7785Z" fill="black"/>
<path d="M43.6906 29.2451C43.6566 25.442 46.7842 23.5917 46.9272 23.5056C45.1559 20.9061 42.4105 20.5509 41.4458 20.5226C39.14 20.2783 36.9033 21.9114 35.7287 21.9114C34.5307 21.9114 32.7219 20.5462 30.7724 20.5863C28.2638 20.6252 25.917 22.0872 24.6299 24.3576C21.9735 28.9867 23.9546 35.7894 26.4996 39.5312C27.7727 41.3637 29.2602 43.4098 31.2073 43.3379C33.1123 43.2588 33.8238 42.1154 36.1226 42.1154C38.4003 42.1154 39.0684 43.3379 41.0542 43.2918C43.0986 43.2588 44.3858 41.451 45.6143 39.602C47.0855 37.5016 47.6763 35.433 47.6997 35.3268C47.6517 35.3103 43.7293 33.8035 43.6906 29.2451Z" fill="white"/>
<path d="M39.9395 18.0611C40.964 16.7713 41.665 15.0167 41.4704 13.2361C39.9875 13.3021 38.133 14.2686 37.0651 15.53C36.1203 16.6415 35.2762 18.4635 35.4943 20.1768C37.1601 20.3019 38.8704 19.3308 39.9395 18.0611Z" fill="white"/>
<path d="M71.2583 43.0746H68.5962L67.1379 38.462H62.0691L60.68 43.0746H58.0881L63.11 27.3712H66.2118L71.2583 43.0746ZM66.6983 36.5268L65.3795 32.4263C65.24 32.0074 64.9786 31.0209 64.5929 29.468H64.5461C64.3925 30.1359 64.1451 31.1224 63.8052 32.4263L62.5099 36.5268H66.6983V36.5268Z" fill="white"/>
<path d="M84.173 37.2737C84.173 39.1995 83.6561 40.7217 82.6221 41.8392C81.6961 42.8339 80.5461 43.3307 79.1734 43.3307C77.6917 43.3307 76.6273 42.795 75.979 41.7235H75.9321V47.6884H73.4329V35.479C73.4329 34.2683 73.4012 33.0258 73.3403 31.7514H75.5382L75.6777 33.5461H75.7246C76.5581 32.1939 77.823 31.5189 79.5204 31.5189C80.8474 31.5189 81.9551 32.0463 82.8414 33.1024C83.7299 34.1597 84.173 35.5498 84.173 37.2737ZM81.6269 37.3658C81.6269 36.2637 81.3807 35.3551 80.886 34.64C80.3456 33.8942 79.62 33.5214 78.7103 33.5214C78.0937 33.5214 77.5334 33.729 77.0329 34.1385C76.5311 34.5515 76.2029 35.0908 76.0493 35.7586C75.972 36.0702 75.9333 36.325 75.9333 36.5256V38.4136C75.9333 39.2373 76.1841 39.9323 76.6859 40.4999C77.1876 41.0675 77.8394 41.3506 78.6412 41.3506C79.5825 41.3506 80.3152 40.9849 80.8392 40.2556C81.3643 39.5252 81.6269 38.5623 81.6269 37.3658Z" fill="white"/>
<path d="M97.1111 37.2737C97.1111 39.1995 96.5942 40.7217 95.5591 41.8392C94.6342 42.8339 93.4842 43.3307 92.1115 43.3307C90.6298 43.3307 89.5654 42.795 88.9183 41.7235H88.8714V47.6884H86.3722V35.479C86.3722 34.2683 86.3405 33.0258 86.2795 31.7514H88.4775L88.617 33.5461H88.6639C89.4962 32.1939 90.7611 31.5189 92.4596 31.5189C93.7855 31.5189 94.8932 32.0463 95.7818 33.1024C96.6668 34.1597 97.1111 35.5498 97.1111 37.2737ZM94.565 37.3658C94.565 36.2637 94.3176 35.3551 93.823 34.64C93.2826 33.8942 92.5593 33.5214 91.6484 33.5214C91.0307 33.5214 90.4715 33.729 89.9698 34.1385C89.4681 34.5515 89.141 35.0908 88.9874 35.7586C88.9112 36.0702 88.8714 36.325 88.8714 36.5256V38.4136C88.8714 39.2373 89.1222 39.9323 89.6216 40.4999C90.1233 41.0663 90.7751 41.3506 91.5793 41.3506C92.5206 41.3506 93.2533 40.9849 93.7772 40.2556C94.3024 39.5252 94.565 38.5623 94.565 37.3658Z" fill="white"/>
<path d="M111.577 38.6709C111.577 40.0067 111.116 41.0934 110.191 41.9324C109.175 42.8493 107.76 43.3071 105.942 43.3071C104.263 43.3071 102.917 42.9814 101.899 42.3289L102.478 40.232C103.575 40.8999 104.779 41.235 106.091 41.235C107.032 41.235 107.765 41.0203 108.291 40.5931C108.815 40.166 109.076 39.5925 109.076 38.8774C109.076 38.2402 108.861 37.7033 108.428 37.2679C107.998 36.8325 107.279 36.4277 106.276 36.0537C103.544 35.0282 102.18 33.5261 102.18 31.5508C102.18 30.2599 102.658 29.2014 103.616 28.3778C104.57 27.5529 105.843 27.1411 107.435 27.1411C108.855 27.1411 110.034 27.3901 110.975 27.8869L110.351 29.9377C109.471 29.4563 108.477 29.2156 107.365 29.2156C106.486 29.2156 105.799 29.4339 105.306 29.8681C104.89 30.2563 104.682 30.7295 104.682 31.29C104.682 31.9107 104.92 32.424 105.398 32.8275C105.814 33.2004 106.57 33.604 107.667 34.0394C109.009 34.5834 109.995 35.2194 110.63 35.9486C111.261 36.6755 111.577 37.5853 111.577 38.6709Z" fill="white"/>
<path d="M119.84 33.6394H117.085V39.137C117.085 40.5353 117.57 41.2339 118.543 41.2339C118.99 41.2339 119.36 41.1949 119.653 41.117L119.723 43.0275C119.23 43.2127 118.582 43.3059 117.779 43.3059C116.792 43.3059 116.021 43.0027 115.464 42.3973C114.909 41.7908 114.63 40.7737 114.63 39.3447V33.637H112.989V31.749H114.63V29.6758L117.085 28.93V31.749H119.84V33.6394Z" fill="white"/>
<path d="M132.269 37.3198C132.269 39.0603 131.775 40.4893 130.788 41.6068C129.752 42.7573 128.379 43.3307 126.666 43.3307C125.015 43.3307 123.701 42.7797 122.721 41.6776C121.741 40.5754 121.251 39.1842 121.251 37.5074C121.251 35.7528 121.755 34.3155 122.767 33.1981C123.776 32.0794 125.138 31.5201 126.851 31.5201C128.502 31.5201 129.83 32.0712 130.832 33.1745C131.791 34.2447 132.269 35.6265 132.269 37.3198ZM129.676 37.4012C129.676 36.3569 129.455 35.4613 129.006 34.7144C128.482 33.8105 127.733 33.3597 126.762 33.3597C125.757 33.3597 124.994 33.8117 124.47 34.7144C124.021 35.4625 123.8 36.3723 123.8 37.4484C123.8 38.4927 124.021 39.3884 124.47 40.1341C125.011 41.038 125.766 41.4888 126.74 41.4888C127.694 41.4888 128.443 41.0286 128.983 40.1105C129.444 39.3494 129.676 38.4444 129.676 37.4012Z" fill="white"/>
<path d="M140.393 33.9639C140.146 33.9178 139.882 33.8942 139.605 33.8942C138.726 33.8942 138.046 34.2282 137.568 34.8972C137.152 35.4872 136.943 36.233 136.943 37.1333V43.0746H134.445L134.468 35.3173C134.468 34.0122 134.437 32.824 134.375 31.7525H136.551L136.643 33.919H136.712C136.976 33.1744 137.392 32.575 137.962 32.1254C138.518 31.7207 139.12 31.5189 139.768 31.5189C139.999 31.5189 140.208 31.5354 140.393 31.5649V33.9639Z" fill="white"/>
<path d="M151.57 36.8773C151.57 37.3281 151.541 37.708 151.479 38.0184H143.981C144.01 39.137 144.373 39.9925 145.069 40.5825C145.701 41.11 146.518 41.3743 147.521 41.3743C148.631 41.3743 149.644 41.1961 150.555 40.8386L150.947 42.585C149.882 43.0522 148.626 43.2847 147.176 43.2847C145.431 43.2847 144.062 42.7679 143.066 41.7354C142.072 40.7029 141.573 39.3164 141.573 37.577C141.573 35.8696 142.036 34.4477 142.964 33.3137C143.934 32.103 145.246 31.4977 146.897 31.4977C148.518 31.4977 149.745 32.103 150.579 33.3137C151.239 34.2754 151.57 35.4648 151.57 36.8773ZM149.187 36.2248C149.204 35.479 149.041 34.8347 148.702 34.2907C148.269 33.591 147.605 33.2417 146.71 33.2417C145.893 33.2417 145.228 33.5827 144.721 34.2671C144.305 34.8111 144.057 35.4637 143.981 36.2236H149.187V36.2248Z" fill="white"/>
<path d="M65.8719 17.7106C65.8719 19.0995 65.4581 20.145 64.6316 20.8471C63.8662 21.4949 62.7783 21.8194 61.3693 21.8194C60.6706 21.8194 60.0728 21.7887 59.5722 21.7273V14.1388C60.2251 14.0326 60.9285 13.9783 61.6881 13.9783C63.0303 13.9783 64.042 14.2721 64.7242 14.8597C65.4885 15.5241 65.8719 16.474 65.8719 17.7106ZM64.5765 17.7448C64.5765 16.8445 64.3397 16.1542 63.8662 15.6728C63.3926 15.1925 62.7009 14.9518 61.7901 14.9518C61.4033 14.9518 61.0739 14.9777 60.8007 15.032V20.801C60.9519 20.8246 61.2286 20.8353 61.6307 20.8353C62.5708 20.8353 63.2964 20.5721 63.8075 20.0458C64.3186 19.5196 64.5765 18.7526 64.5765 17.7448Z" fill="white"/>
<path d="M72.74 18.9236C72.74 19.7791 72.4974 20.48 72.0121 21.0299C71.5033 21.5951 70.8293 21.8772 69.9876 21.8772C69.1764 21.8772 68.5305 21.6069 68.0487 21.0641C67.5681 20.5225 67.3278 19.8393 67.3278 19.0157C67.3278 18.1543 67.5751 17.4474 68.0721 16.8987C68.5692 16.35 69.2374 16.0751 70.079 16.0751C70.8902 16.0751 71.542 16.3453 72.0355 16.8869C72.5044 17.4132 72.74 18.0929 72.74 18.9236ZM71.4658 18.9637C71.4658 18.4504 71.3556 18.0103 71.1364 17.6433C70.8785 17.1996 70.5116 16.9778 70.0345 16.9778C69.541 16.9778 69.1658 17.1996 68.908 17.6433C68.6876 18.0103 68.5786 18.4575 68.5786 18.9862C68.5786 19.4995 68.6887 19.9396 68.908 20.3066C69.1741 20.7503 69.5445 20.9721 70.0228 20.9721C70.4917 20.9721 70.8597 20.7467 71.1247 20.2948C71.3521 19.9207 71.4658 19.477 71.4658 18.9637Z" fill="white"/>
<path d="M81.9493 16.1884L80.2202 21.7509H79.0948L78.3786 19.3354C78.1969 18.7325 78.0492 18.133 77.9343 17.5383H77.912C77.8054 18.1495 77.6577 18.7478 77.4678 19.3354L76.707 21.7509H75.5687L73.9428 16.1884H75.2053L75.8301 18.8328C75.9813 19.4582 76.1056 20.0541 76.2052 20.6181H76.2275C76.319 20.1532 76.4702 19.5608 76.6835 18.8446L77.4678 16.1896H78.4689L79.2203 18.7879C79.402 19.4216 79.5497 20.0316 79.6634 20.6193H79.6974C79.7806 20.047 79.906 19.4369 80.0725 18.7879L80.743 16.1896H81.9493V16.1884Z" fill="white"/>
<path d="M88.318 21.7509H87.0895V18.5649C87.0895 17.5831 86.7191 17.0923 85.9759 17.0923C85.6113 17.0923 85.3171 17.2268 85.0885 17.497C84.8622 17.7672 84.7474 18.0858 84.7474 18.4504V21.7497H83.5188V17.7778C83.5188 17.2893 83.5036 16.7595 83.4743 16.186H84.5539L84.6114 17.0557H84.6454C84.7884 16.7855 85.0017 16.5624 85.2819 16.3843C85.6148 16.1766 85.9876 16.0716 86.3955 16.0716C86.9113 16.0716 87.3404 16.2391 87.6815 16.5754C88.1059 16.9872 88.318 17.602 88.318 18.4186V21.7509V21.7509Z" fill="white"/>
<path d="M91.7059 21.7509H90.4786V13.636H91.7059V21.7509Z" fill="white"/>
<path d="M98.9387 18.9236C98.9387 19.7791 98.6961 20.48 98.2107 21.0299C97.702 21.5951 97.0268 21.8772 96.1863 21.8772C95.3739 21.8772 94.728 21.6069 94.2474 21.0641C93.7667 20.5225 93.5264 19.8393 93.5264 19.0157C93.5264 18.1543 93.7738 17.4474 94.2708 16.8987C94.7678 16.35 95.436 16.0751 96.2765 16.0751C97.0889 16.0751 97.7395 16.3453 98.2342 16.8869C98.7031 17.4132 98.9387 18.0929 98.9387 18.9236ZM97.6633 18.9637C97.6633 18.4504 97.5531 18.0103 97.3339 17.6433C97.0772 17.1996 96.7091 16.9778 96.2332 16.9778C95.7385 16.9778 95.3633 17.1996 95.1066 17.6433C94.8862 18.0103 94.7772 18.4575 94.7772 18.9862C94.7772 19.4995 94.8874 19.9396 95.1066 20.3066C95.3727 20.7503 95.7432 20.9721 96.2214 20.9721C96.6903 20.9721 97.0572 20.7467 97.3222 20.2948C97.5508 19.9207 97.6633 19.477 97.6633 18.9637Z" fill="white"/>
<path d="M104.884 21.7509H103.781L103.69 21.1102H103.656C103.278 21.6211 102.74 21.8772 102.042 21.8772C101.52 21.8772 101.098 21.7084 100.78 21.3733C100.492 21.0689 100.348 20.6901 100.348 20.2405C100.348 19.5608 100.629 19.0428 101.195 18.6841C101.76 18.3254 102.555 18.1495 103.578 18.1578V18.054C103.578 17.3212 103.196 16.9554 102.431 16.9554C101.886 16.9554 101.405 17.0934 100.99 17.3672L100.74 16.5554C101.254 16.2356 101.888 16.0751 102.636 16.0751C104.08 16.0751 104.805 16.8421 104.805 18.3761V20.4246C104.805 20.9804 104.832 21.4229 104.884 21.7509ZM103.609 19.8393V18.9814C102.254 18.9578 101.576 19.3319 101.576 20.1024C101.576 20.3927 101.654 20.6098 101.812 20.755C101.97 20.9001 102.172 20.9721 102.412 20.9721C102.682 20.9721 102.934 20.886 103.163 20.7149C103.394 20.5426 103.536 20.3243 103.589 20.0564C103.602 19.9962 103.609 19.9231 103.609 19.8393Z" fill="white"/>
<path d="M111.865 21.7509H110.775L110.717 20.8576H110.683C110.335 21.5373 109.742 21.8772 108.909 21.8772C108.243 21.8772 107.688 21.614 107.249 21.0877C106.809 20.5615 106.59 19.8782 106.59 19.0393C106.59 18.1389 106.828 17.4097 107.306 16.8527C107.769 16.3335 108.337 16.0739 109.012 16.0739C109.754 16.0739 110.273 16.3253 110.569 16.8291H110.592V13.636H111.822V20.2523C111.822 20.7939 111.836 21.2931 111.865 21.7509ZM110.592 19.4051V18.4776C110.592 18.3171 110.58 18.1873 110.558 18.0882C110.489 17.7908 110.34 17.5407 110.114 17.3389C109.885 17.1371 109.61 17.0356 109.292 17.0356C108.834 17.0356 108.475 17.2185 108.211 17.5855C107.95 17.9525 107.817 18.4209 107.817 18.9932C107.817 19.5431 107.943 19.9892 108.195 20.3325C108.461 20.6983 108.82 20.8812 109.268 20.8812C109.672 20.8812 109.994 20.729 110.239 20.4234C110.476 20.1414 110.592 19.8015 110.592 19.4051Z" fill="white"/>
<path d="M122.372 18.9236C122.372 19.7791 122.129 20.48 121.644 21.0299C121.135 21.5951 120.462 21.8772 119.619 21.8772C118.809 21.8772 118.164 21.6069 117.681 21.0641C117.2 20.5225 116.96 19.8393 116.96 19.0157C116.96 18.1543 117.207 17.4474 117.704 16.8987C118.201 16.35 118.869 16.0751 119.712 16.0751C120.522 16.0751 121.175 16.3453 121.667 16.8869C122.136 17.4132 122.372 18.0929 122.372 18.9236ZM121.099 18.9637C121.099 18.4504 120.989 18.0103 120.769 17.6433C120.51 17.1996 120.145 16.9778 119.666 16.9778C119.174 16.9778 118.799 17.1996 118.54 17.6433C118.319 18.0103 118.21 18.4575 118.21 18.9862C118.21 19.4995 118.321 19.9396 118.54 20.3066C118.806 20.7503 119.176 20.9721 119.655 20.9721C120.124 20.9721 120.493 20.7467 120.758 20.2948C120.984 19.9207 121.099 19.477 121.099 18.9637Z" fill="white"/>
<path d="M128.978 21.7509H127.75V18.5649C127.75 17.5831 127.38 17.0923 126.635 17.0923C126.271 17.0923 125.977 17.2268 125.749 17.497C125.522 17.7672 125.408 18.0858 125.408 18.4504V21.7497H124.178V17.7778C124.178 17.2893 124.164 16.7595 124.135 16.186H125.213L125.271 17.0557H125.305C125.449 16.7855 125.662 16.5624 125.941 16.3843C126.275 16.1766 126.647 16.0716 127.056 16.0716C127.571 16.0716 128 16.2391 128.341 16.5754C128.766 16.9872 128.978 17.602 128.978 18.4186V21.7509V21.7509Z" fill="white"/>
<path d="M137.245 17.1147H135.893V19.8169C135.893 20.5037 136.133 20.847 136.609 20.847C136.829 20.847 137.012 20.8282 137.156 20.7892L137.188 21.7273C136.945 21.8194 136.626 21.8654 136.234 21.8654C135.748 21.8654 135.371 21.7167 135.098 21.4193C134.824 21.122 134.688 20.6217 134.688 19.9196V17.1147H133.88V16.1884H134.688V15.1689L135.891 14.8031V16.1872H137.244V17.1147H137.245Z" fill="white"/>
<path d="M143.749 21.7509H142.519V18.5885C142.519 17.5914 142.149 17.0923 141.407 17.0923C140.837 17.0923 140.448 17.3814 140.235 17.9596C140.198 18.0811 140.177 18.2298 140.177 18.4044V21.7497H138.95V13.636H140.177V16.9884H140.201C140.588 16.3784 141.142 16.0739 141.861 16.0739C142.369 16.0739 142.79 16.2415 143.124 16.5778C143.54 16.9967 143.749 17.6197 143.749 18.4434V21.7509V21.7509Z" fill="white"/>
<path d="M150.458 18.7065C150.458 18.9283 150.441 19.1148 150.412 19.267H146.728C146.744 19.8169 146.92 20.2358 147.261 20.5261C147.573 20.7857 147.975 20.9155 148.467 20.9155C149.012 20.9155 149.51 20.8281 149.957 20.6523L150.15 21.5114C149.626 21.7403 149.009 21.8547 148.295 21.8547C147.439 21.8547 146.765 21.601 146.278 21.0936C145.788 20.5862 145.545 19.9054 145.545 19.0511C145.545 18.2121 145.771 17.5135 146.227 16.9566C146.703 16.3618 147.347 16.0645 148.159 16.0645C148.954 16.0645 149.558 16.3618 149.966 16.9566C150.295 17.4286 150.458 18.0127 150.458 18.7065ZM149.286 18.3867C149.295 18.0197 149.214 17.7035 149.048 17.4368C148.834 17.0934 148.51 16.9212 148.07 16.9212C147.669 16.9212 147.342 17.0887 147.092 17.425C146.888 17.6929 146.768 18.0127 146.728 18.3867H149.286Z" fill="white"/>
</svg>
