<svg width="160" height="83" viewBox="0 0 160 83" fill="none" xmlns="http://www.w3.org/2000/svg">
<path d="M28.7783 31.4688C28.965 31.7621 29.125 32.1621 29.2583 32.6688C29.4183 33.1488 29.4983 33.6554 29.4983 34.1888C29.4983 35.2288 29.2716 35.9754 28.8183 36.4288C28.3916 36.8554 27.8049 37.0688 27.0583 37.0688H18.6583V41.5888H27.4183C27.6316 41.8821 27.805 42.2688 27.9383 42.7488C28.0983 43.2288 28.1783 43.7354 28.1783 44.2688C28.1783 45.2821 27.9516 46.0154 27.4983 46.4688C27.0716 46.8954 26.485 47.1088 25.7383 47.1088H18.7383V55.5488C18.445 55.6288 17.9783 55.7088 17.3383 55.7888C16.7249 55.8688 16.1116 55.9088 15.4983 55.9088C14.8849 55.9088 14.3383 55.8554 13.8583 55.7488C13.4049 55.6688 13.0183 55.5088 12.6983 55.2688C12.3783 55.0288 12.1383 54.6954 11.9783 54.2688C11.8183 53.8421 11.7383 53.2821 11.7383 52.5888V35.1888C11.7383 34.0421 12.0716 33.1354 12.7383 32.4688C13.4049 31.8021 14.3116 31.4688 15.4583 31.4688H28.7783ZM31.1958 30.8688C31.1958 29.8554 31.5291 29.0021 32.1958 28.3088C32.8891 27.6154 33.7958 27.2688 34.9158 27.2688C36.0358 27.2688 36.9291 27.6154 37.5958 28.3088C38.2891 29.0021 38.6358 29.8554 38.6358 30.8688C38.6358 31.8821 38.2891 32.7354 37.5958 33.4288C36.9291 34.1221 36.0358 34.4688 34.9158 34.4688C33.7958 34.4688 32.8891 34.1221 32.1958 33.4288C31.5291 32.7354 31.1958 31.8821 31.1958 30.8688ZM38.3158 55.6688C38.0225 55.7221 37.5825 55.7888 36.9958 55.8688C36.4358 55.9754 35.8625 56.0288 35.2758 56.0288C34.6891 56.0288 34.1558 55.9888 33.6758 55.9088C33.2225 55.8288 32.8358 55.6688 32.5158 55.4288C32.1958 55.1888 31.9425 54.8688 31.7558 54.4688C31.5958 54.0421 31.5158 53.4954 31.5158 52.8288V36.5488C31.8091 36.4954 32.2358 36.4288 32.7958 36.3488C33.3825 36.2421 33.9691 36.1888 34.5558 36.1888C35.1425 36.1888 35.6625 36.2288 36.1158 36.3088C36.5958 36.3888 36.9958 36.5488 37.3158 36.7888C37.6358 37.0288 37.8758 37.3621 38.0358 37.7888C38.2225 38.1888 38.3158 38.7221 38.3158 39.3888V55.6688ZM54.1648 43.3888C54.1648 42.5621 53.9248 41.9621 53.4448 41.5888C52.9915 41.1888 52.3648 40.9888 51.5648 40.9888C51.0315 40.9888 50.4982 41.0554 49.9648 41.1888C49.4582 41.3221 49.0182 41.5221 48.6448 41.7888V55.6688C48.3782 55.7488 47.9515 55.8288 47.3648 55.9088C46.8048 55.9888 46.2182 56.0288 45.6048 56.0288C45.0182 56.0288 44.4848 55.9888 44.0048 55.9088C43.5515 55.8288 43.1648 55.6688 42.8448 55.4288C42.5248 55.1888 42.2715 54.8688 42.0848 54.4688C41.9248 54.0421 41.8448 53.4954 41.8448 52.8288V40.8288C41.8448 40.1088 41.9915 39.5221 42.2848 39.0688C42.6048 38.6154 43.0315 38.2021 43.5648 37.8288C44.4715 37.1888 45.6048 36.6688 46.9648 36.2688C48.3515 35.8688 49.8848 35.6688 51.5648 35.6688C54.5782 35.6688 56.8982 36.3354 58.5248 37.6688C60.1515 38.9754 60.9648 40.8021 60.9648 43.1488V55.6688C60.6982 55.7488 60.2715 55.8288 59.6848 55.9088C59.1248 55.9888 58.5382 56.0288 57.9248 56.0288C57.3382 56.0288 56.8048 55.9888 56.3248 55.9088C55.8715 55.8288 55.4848 55.6688 55.1648 55.4288C54.8448 55.1888 54.5915 54.8688 54.4048 54.4688C54.2448 54.0421 54.1648 53.4954 54.1648 52.8288V43.3888ZM63.5252 45.9888C63.5252 44.2288 63.7918 42.7088 64.3252 41.4288C64.8585 40.1221 65.5918 39.0421 66.5252 38.1888C67.4852 37.3354 68.5918 36.7088 69.8452 36.3088C71.1252 35.8821 72.4985 35.6688 73.9652 35.6688C74.4985 35.6688 75.0185 35.7221 75.5252 35.8288C76.0318 35.9088 76.4452 36.0154 76.7652 36.1488V29.6688C77.0318 29.5888 77.4585 29.5088 78.0452 29.4288C78.6318 29.3221 79.2318 29.2688 79.8452 29.2688C80.4318 29.2688 80.9518 29.3088 81.4052 29.3888C81.8852 29.4688 82.2852 29.6288 82.6052 29.8688C82.9252 30.1088 83.1652 30.4421 83.3252 30.8688C83.4852 31.2688 83.5652 31.8021 83.5652 32.4688V51.4288C83.5652 52.6821 82.9785 53.6821 81.8052 54.4288C81.0318 54.9354 80.0318 55.3754 78.8052 55.7488C77.5785 56.1488 76.1652 56.3488 74.5652 56.3488C72.8318 56.3488 71.2718 56.1088 69.8852 55.6288C68.5252 55.1488 67.3652 54.4554 66.4052 53.5488C65.4718 52.6421 64.7518 51.5621 64.2452 50.3088C63.7652 49.0288 63.5252 47.5888 63.5252 45.9888ZM74.8852 40.9888C73.4452 40.9888 72.3385 41.4021 71.5652 42.2288C70.7918 43.0554 70.4052 44.3088 70.4052 45.9888C70.4052 47.6421 70.7652 48.8954 71.4852 49.7488C72.2052 50.5754 73.2452 50.9888 74.6052 50.9888C75.0852 50.9888 75.5118 50.9221 75.8852 50.7888C76.2852 50.6288 76.5918 50.4554 76.8052 50.2688V41.4688C76.2718 41.1488 75.6318 40.9888 74.8852 40.9888ZM94.3227 50.7088C94.696 50.8154 95.176 50.8954 95.7627 50.9488C96.3493 50.9754 96.9093 50.9888 97.4427 50.9888C98.5093 50.9888 99.3893 50.7754 100.083 50.3488C100.803 49.8954 101.163 49.2021 101.163 48.2688C101.163 47.3888 100.869 46.7621 100.283 46.3888C99.696 46.0154 98.8027 45.8288 97.6027 45.8288H94.3227V50.7088ZM94.3227 40.9488H97.2427C98.3893 40.9488 99.216 40.7354 99.7227 40.3088C100.256 39.8821 100.523 39.2554 100.523 38.4288C100.523 37.7088 100.216 37.1354 99.6027 36.7088C99.016 36.2821 98.1227 36.0688 96.9227 36.0688C96.5227 36.0688 96.056 36.0821 95.5227 36.1088C95.016 36.1354 94.616 36.1754 94.3227 36.2288V40.9488ZM96.9227 56.3488C96.4693 56.3488 95.936 56.3354 95.3227 56.3088C94.7093 56.2821 94.0693 56.2288 93.4027 56.1488C92.7627 56.0688 92.1227 55.9621 91.4827 55.8288C90.8427 55.7221 90.256 55.5621 89.7227 55.3488C88.256 54.7888 87.5227 53.8154 87.5227 52.4288V33.7488C87.5227 33.1888 87.6693 32.7621 87.9627 32.4688C88.2827 32.1488 88.7093 31.8954 89.2427 31.7088C90.1493 31.3888 91.2827 31.1621 92.6427 31.0288C94.0027 30.8688 95.4027 30.7888 96.8427 30.7888C100.256 30.7888 102.883 31.3621 104.723 32.5088C106.563 33.6554 107.483 35.4288 107.483 37.8288C107.483 39.0288 107.136 40.0688 106.443 40.9488C105.749 41.8021 104.816 42.4288 103.643 42.8288C104.976 43.2021 106.083 43.8821 106.963 44.8688C107.869 45.8554 108.323 47.0954 108.323 48.5888C108.323 51.2288 107.336 53.1888 105.363 54.4688C103.416 55.7221 100.603 56.3488 96.9227 56.3488ZM110.773 36.5488C111.04 36.4688 111.453 36.3888 112.013 36.3088C112.6 36.2288 113.2 36.1888 113.813 36.1888C114.4 36.1888 114.92 36.2288 115.373 36.3088C115.853 36.3888 116.253 36.5488 116.573 36.7888C116.893 37.0288 117.133 37.3621 117.293 37.7888C117.48 38.1888 117.573 38.7221 117.573 39.3888V47.9888C117.573 49.0821 117.84 49.8688 118.373 50.3488C118.906 50.8021 119.68 51.0288 120.693 51.0288C121.306 51.0288 121.8 50.9754 122.173 50.8688C122.573 50.7621 122.88 50.6554 123.093 50.5488V36.5488C123.36 36.4688 123.773 36.3888 124.333 36.3088C124.92 36.2288 125.52 36.1888 126.133 36.1888C126.72 36.1888 127.24 36.2288 127.693 36.3088C128.173 36.3888 128.573 36.5488 128.893 36.7888C129.213 37.0288 129.453 37.3621 129.613 37.7888C129.8 38.1888 129.893 38.7221 129.893 39.3888V51.5488C129.893 52.8821 129.333 53.8821 128.213 54.5488C127.28 55.1354 126.16 55.5754 124.853 55.8688C123.573 56.1888 122.173 56.3488 120.653 56.3488C119.213 56.3488 117.88 56.1888 116.653 55.8688C115.453 55.5488 114.413 55.0554 113.533 54.3888C112.653 53.7221 111.973 52.8688 111.493 51.8288C111.013 50.7621 110.773 49.4821 110.773 47.9888V36.5488ZM149.654 49.9088C149.654 51.9354 148.894 53.5221 147.374 54.6688C145.854 55.8154 143.614 56.3888 140.654 56.3888C139.534 56.3888 138.494 56.3088 137.534 56.1488C136.574 55.9888 135.748 55.7488 135.054 55.4288C134.388 55.0821 133.854 54.6554 133.454 54.1488C133.081 53.6421 132.894 53.0421 132.894 52.3488C132.894 51.7088 133.028 51.1754 133.294 50.7488C133.561 50.2954 133.881 49.9221 134.254 49.6288C135.028 50.0554 135.908 50.4421 136.894 50.7888C137.908 51.1088 139.068 51.2688 140.374 51.2688C141.201 51.2688 141.828 51.1488 142.254 50.9088C142.708 50.6688 142.934 50.3488 142.934 49.9488C142.934 49.5754 142.774 49.2821 142.454 49.0688C142.134 48.8554 141.601 48.6821 140.854 48.5488L139.654 48.3088C137.334 47.8554 135.601 47.1488 134.454 46.1888C133.334 45.2021 132.774 43.8021 132.774 41.9888C132.774 41.0021 132.988 40.1088 133.414 39.3088C133.841 38.5088 134.441 37.8421 135.214 37.3088C135.988 36.7754 136.908 36.3621 137.974 36.0688C139.068 35.7754 140.268 35.6288 141.574 35.6288C142.561 35.6288 143.481 35.7088 144.334 35.8688C145.214 36.0021 145.974 36.2154 146.614 36.5088C147.254 36.8021 147.761 37.1888 148.134 37.6688C148.508 38.1221 148.694 38.6688 148.694 39.3088C148.694 39.9221 148.574 40.4554 148.334 40.9088C148.121 41.3354 147.841 41.6954 147.494 41.9888C147.281 41.8554 146.961 41.7221 146.534 41.5888C146.108 41.4288 145.641 41.2954 145.134 41.1888C144.628 41.0554 144.108 40.9488 143.574 40.8688C143.068 40.7888 142.601 40.7488 142.174 40.7488C141.294 40.7488 140.614 40.8554 140.134 41.0688C139.654 41.2554 139.414 41.5621 139.414 41.9888C139.414 42.2821 139.548 42.5221 139.814 42.7088C140.081 42.8954 140.588 43.0688 141.334 43.2288L142.574 43.5088C145.134 44.0954 146.948 44.9088 148.014 45.9488C149.108 46.9621 149.654 48.2821 149.654 49.9088Z" fill="white"/>
<path d="M15.2289 21.6049V21.6049C33.1387 8.70165 56.9492 7.49542 76.0713 18.5227L80.1217 20.8584" stroke="white" stroke-width="8" stroke-linecap="round" stroke-linejoin="round"/>
<path d="M80.1217 20.8584V20.8584C61.9197 8.37058 38.0879 7.71243 19.2244 19.1766L15.2289 21.6049" stroke="white" stroke-width="8" stroke-linecap="round" stroke-linejoin="round"/>
</svg>
