<svg width="120" height="120" viewBox="0 0 120 120" fill="none" xmlns="http://www.w3.org/2000/svg">
<rect width="120" height="120" rx="60" fill="#6ABDF9"/>
<path d="M55.1772 45.61C55.4805 46.0867 55.7405 46.7367 55.9572 47.56C56.2172 48.34 56.3472 49.1633 56.3472 50.03C56.3472 51.72 55.9789 52.9333 55.2422 53.67C54.5489 54.3633 53.5955 54.71 52.3822 54.71H38.7322V62.055H52.9672C53.3139 62.5317 53.5955 63.16 53.8122 63.94C54.0722 64.72 54.2022 65.5433 54.2022 66.41C54.2022 68.0567 53.8339 69.2483 53.0972 69.985C52.4039 70.6783 51.4505 71.025 50.2372 71.025H38.8622V84.74C38.3855 84.87 37.6272 85 36.5872 85.13C35.5905 85.26 34.5939 85.325 33.5972 85.325C32.6005 85.325 31.7122 85.2383 30.9322 85.065C30.1955 84.935 29.5672 84.675 29.0472 84.285C28.5272 83.895 28.1372 83.3533 27.8772 82.66C27.6172 81.9667 27.4872 81.0567 27.4872 79.93V51.655C27.4872 49.7917 28.0289 48.3183 29.1122 47.235C30.1955 46.1517 31.6689 45.61 33.5322 45.61H55.1772ZM71.7685 76.875C72.3751 77.0483 73.1551 77.1783 74.1085 77.265C75.0618 77.3083 75.9718 77.33 76.8385 77.33C78.5718 77.33 80.0018 76.9833 81.1285 76.29C82.2985 75.5533 82.8835 74.4267 82.8835 72.91C82.8835 71.48 82.4068 70.4617 81.4535 69.855C80.5001 69.2483 79.0485 68.945 77.0985 68.945H71.7685V76.875ZM71.7685 61.015H76.5135C78.3768 61.015 79.7201 60.6683 80.5435 59.975C81.4101 59.2817 81.8435 58.2633 81.8435 56.92C81.8435 55.75 81.3451 54.8183 80.3485 54.125C79.3951 53.4317 77.9435 53.085 75.9935 53.085C75.3435 53.085 74.5851 53.1067 73.7185 53.15C72.8951 53.1933 72.2451 53.2583 71.7685 53.345V61.015ZM75.9935 86.04C75.2568 86.04 74.3901 86.0183 73.3935 85.975C72.3968 85.9317 71.3568 85.845 70.2735 85.715C69.2335 85.585 68.1935 85.4117 67.1535 85.195C66.1135 85.0217 65.1601 84.7617 64.2935 84.415C61.9101 83.505 60.7185 81.9233 60.7185 79.67V49.315C60.7185 48.405 60.9568 47.7117 61.4335 47.235C61.9535 46.715 62.6468 46.3033 63.5135 46C64.9868 45.48 66.8285 45.1117 69.0385 44.895C71.2485 44.635 73.5235 44.505 75.8635 44.505C81.4101 44.505 85.6785 45.4367 88.6685 47.3C91.6585 49.1633 93.1535 52.045 93.1535 55.945C93.1535 57.895 92.5901 59.585 91.4635 61.015C90.3368 62.4017 88.8201 63.42 86.9135 64.07C89.0801 64.6767 90.8785 65.7817 92.3085 67.385C93.7818 68.9883 94.5185 71.0033 94.5185 73.43C94.5185 77.72 92.9151 80.905 89.7085 82.985C86.5451 85.0217 81.9735 86.04 75.9935 86.04Z" fill="white"/>
<path d="M30.2073 38.629V38.629C45.6496 27.5036 66.1794 26.4635 82.6669 35.9714L86.1592 37.9854" stroke="white" stroke-width="8" stroke-linecap="round" stroke-linejoin="round"/>
<path d="M86.1588 37.9845V37.9845C70.4647 27.2172 49.9164 26.6497 33.6519 36.5344L30.2069 38.6281" stroke="white" stroke-width="8" stroke-linecap="round" stroke-linejoin="round"/>
</svg>
